<svg width="16" height="16" viewBox="0 0 16 16" fill="none" xmlns="http://www.w3.org/2000/svg">
<path d="M4.02856 5.39172H8.99841V6.14172H4.02856V5.39172ZM4.02856 9.85813H8.99841V10.6081H4.02856V9.85813Z" fill="#69686D" stroke="#69686D" stroke-width="0.4"/>
<path d="M12.6909 15H3.6875C2.55031 15 1.625 14.0748 1.625 12.9375V3.0625C1.625 1.92516 2.55031 1 3.6875 1H9.69438C10.8316 1 11.7569 1.92516 11.7569 3.0625V3.79219H12.3125C12.8593 3.79277 13.3836 4.01025 13.7703 4.39692C14.1569 4.78359 14.3744 5.30786 14.375 5.85469V13.4986C14.375 14.3263 13.6195 15 12.6909 15ZM12.6909 14.25C13.2066 14.25 13.625 13.9131 13.625 13.4989V5.855C13.6246 5.50702 13.4862 5.17339 13.2402 4.92733C12.9941 4.68127 12.6605 4.54287 12.3125 4.5425H11.7569V13.4986C11.7569 13.9128 12.1759 14.25 12.6909 14.25ZM3.6875 1.75C3.33952 1.75037 3.00589 1.88877 2.75983 2.13483C2.51377 2.38089 2.37537 2.71452 2.375 3.0625V12.9375C2.37537 13.2855 2.51377 13.6191 2.75983 13.8652C3.00589 14.1112 3.33952 14.2496 3.6875 14.25H11.2333C11.0862 14.0271 11.0075 13.766 11.0069 13.4989V3.0625C11.0065 2.71453 10.868 2.38093 10.622 2.13488C10.3759 1.88883 10.0423 1.75041 9.69438 1.75H3.6875Z" fill="#69686D" stroke="#69686D" stroke-width="0.4"/>
</svg>
