<svg width="16" height="16" viewBox="0 0 16 16" fill="none" xmlns="http://www.w3.org/2000/svg">
<path d="M4.66699 8.66701C4.66699 8.29801 4.96499 8.00001 5.33299 8.00001H5.33899C5.51129 8.00669 5.67431 8.07983 5.79385 8.20409C5.9134 8.32835 5.98017 8.49408 5.98017 8.66651C5.98017 8.83894 5.9134 9.00467 5.79385 9.12893C5.67431 9.2532 5.51129 9.32634 5.33899 9.33301H5.33299C5.15644 9.33275 4.98719 9.26249 4.86235 9.13765C4.73751 9.01281 4.66726 8.84356 4.66699 8.66701ZM7.32999 8.66701C7.32999 8.29801 7.62899 8.00001 7.99699 8.00001H8.00299C8.17529 8.00669 8.33831 8.07983 8.45785 8.20409C8.5774 8.32835 8.64417 8.49408 8.64417 8.66651C8.64417 8.83894 8.5774 9.00467 8.45785 9.12893C8.33831 9.2532 8.17529 9.32634 8.00299 9.33301H7.99699C7.82027 9.33301 7.65076 9.26288 7.52571 9.13801C7.40065 9.01314 7.33026 8.84374 7.32999 8.66701ZM9.99399 8.66701C9.99399 8.29801 10.293 8.00001 10.661 8.00001H10.667C10.7567 7.99654 10.8462 8.0112 10.9301 8.04313C11.014 8.07506 11.0905 8.1236 11.1552 8.18583C11.2199 8.24806 11.2714 8.32271 11.3065 8.40531C11.3417 8.4879 11.3598 8.57675 11.3598 8.66651C11.3598 8.75628 11.3417 8.84512 11.3065 8.92771C11.2714 9.01031 11.2199 9.08496 11.1552 9.14719C11.0905 9.20943 11.014 9.25796 10.9301 9.28989C10.8462 9.32182 10.7567 9.33649 10.667 9.33301H10.661C10.4843 9.33301 10.3148 9.26288 10.1897 9.13801C10.0646 9.01314 9.99426 8.84374 9.99399 8.66701ZM4.66699 11.333C4.66699 10.965 4.96499 10.667 5.33299 10.667H5.33899C5.42869 10.6635 5.51817 10.6782 5.60206 10.7101C5.68596 10.7421 5.76254 10.7906 5.82723 10.8528C5.89193 10.9151 5.94339 10.9897 5.97854 11.0723C6.01369 11.1549 6.03181 11.2437 6.03181 11.3335C6.03181 11.4233 6.01369 11.5121 5.97854 11.5947C5.94339 11.6773 5.89193 11.752 5.82723 11.8142C5.76254 11.8764 5.68596 11.925 5.60206 11.9569C5.51817 11.9888 5.42869 12.0035 5.33899 12H5.33299C5.15627 11.9997 4.98687 11.9294 4.862 11.8043C4.73713 11.6792 4.66699 11.5097 4.66699 11.333ZM7.32999 11.333C7.32999 10.965 7.62899 10.667 7.99699 10.667H8.00299C8.09269 10.6635 8.18217 10.6782 8.26606 10.7101C8.34996 10.7421 8.42654 10.7906 8.49123 10.8528C8.55593 10.9151 8.60739 10.9897 8.64254 11.0723C8.67769 11.1549 8.69581 11.2437 8.69581 11.3335C8.69581 11.4233 8.67769 11.5121 8.64254 11.5947C8.60739 11.6773 8.55593 11.752 8.49123 11.8142C8.42654 11.8764 8.34996 11.925 8.26606 11.9569C8.18217 11.9888 8.09269 12.0035 8.00299 12H7.99699C7.82009 12 7.65044 11.9297 7.52535 11.8047C7.40027 11.6796 7.32999 11.5099 7.32999 11.333Z" fill="#566AE5"/>
<path d="M3.99999 0.833008C4.1326 0.833008 4.25978 0.885686 4.35355 0.979454C4.44731 1.07322 4.49999 1.2004 4.49999 1.33301V1.57701C5.25799 1.50001 6.18999 1.50001 7.32599 1.50001H8.67399C9.81099 1.50001 10.743 1.50001 11.5 1.57701V1.33301C11.5 1.2004 11.5527 1.07322 11.6464 0.979454C11.7402 0.885686 11.8674 0.833008 12 0.833008C12.1326 0.833008 12.2598 0.885686 12.3535 0.979454C12.4473 1.07322 12.5 1.2004 12.5 1.33301V1.75701C13.037 1.90901 13.49 2.15601 13.866 2.56301C14.384 3.12301 14.615 3.83201 14.726 4.72001C14.833 5.59001 14.833 6.70401 14.833 8.12701V8.54001C14.833 9.96201 14.833 11.077 14.725 11.947C14.615 12.835 14.385 13.543 13.865 14.104C13.342 14.67 12.672 14.927 11.833 15.049C11.021 15.167 9.98299 15.167 8.67399 15.167H7.32599C6.01699 15.167 4.97999 15.167 4.16799 15.049C3.32799 14.927 2.65799 14.67 2.13499 14.104C1.61499 13.544 1.38499 12.834 1.27499 11.947C1.16699 11.077 1.16699 9.96201 1.16699 8.54001V8.12701C1.16699 6.70401 1.16699 5.59001 1.27499 4.72001C1.38499 3.83201 1.61499 3.12401 2.13499 2.56301C2.51099 2.15601 2.96399 1.90901 3.49999 1.75701V1.33301C3.49999 1.2004 3.55267 1.07322 3.64644 0.979454C3.74021 0.885686 3.86738 0.833008 3.99999 0.833008ZM3.99999 3.16701C3.89142 3.16682 3.78586 3.1313 3.69926 3.06581C3.61267 3.00032 3.54974 2.90842 3.51999 2.80401C3.27218 2.89797 3.0494 3.04786 2.86899 3.24201C2.55399 3.58201 2.36699 4.04901 2.26899 4.83301H13.732C13.633 4.04901 13.447 3.58301 13.132 3.24201C12.9519 3.04798 12.7294 2.8981 12.482 2.80401C12.4497 2.92099 12.376 3.02225 12.2747 3.08891C12.1733 3.15558 12.0511 3.18309 11.9309 3.16632C11.8107 3.14955 11.7007 3.08965 11.6214 2.99778C11.5422 2.90592 11.499 2.78835 11.5 2.66701V2.58301C10.793 2.50101 9.87999 2.50001 8.63299 2.50001H7.36699C6.12199 2.50001 5.20699 2.50101 4.49999 2.58301V2.66701C4.49999 2.79962 4.44731 2.92679 4.35355 3.02056C4.25978 3.11433 4.1326 3.16701 3.99999 3.16701ZM13.807 5.83301H2.19299C2.16699 6.47101 2.16699 7.23301 2.16699 8.16301V8.50501C2.16699 9.97001 2.16699 11.023 2.26699 11.824C2.36599 12.614 2.55199 13.083 2.86899 13.424C3.17899 13.761 3.59899 13.955 4.31099 14.059C5.04299 14.165 6.00799 14.167 7.36699 14.167H8.63299C9.99299 14.167 10.957 14.165 11.689 14.059C12.402 13.955 12.821 13.761 13.132 13.425C13.448 13.083 13.635 12.614 13.733 11.824C13.833 11.023 13.833 9.97001 13.833 8.50401V8.16201C13.833 7.23401 13.833 6.47201 13.807 5.83301Z" fill="#566AE5"/>
</svg>
