<svg width="21" height="21" viewBox="0 0 21 21" fill="none" xmlns="http://www.w3.org/2000/svg">
<g clip-path="url(#clip0_1961_4316)">
<path d="M18.855 15.9336H18.23C18.23 17.3148 17.1112 18.4336 15.73 18.4336C14.3487 18.4336 13.23 17.3148 13.23 15.9336H6.97998C6.97998 17.3148 5.86123 18.4336 4.47998 18.4336C3.09873 18.4336 1.97998 17.3148 1.97998 15.9336H1.35498C1.00998 15.9336 0.72998 15.6536 0.72998 15.3086V5.93359C0.72998 4.55234 1.84873 3.43359 3.22998 3.43359H9.47998C10.8612 3.43359 11.98 4.55234 11.98 5.93359H15.0662C15.2512 5.91859 15.4387 5.97234 15.58 6.11359L19.2587 9.79359C19.2775 9.81109 19.2712 9.83984 19.2875 9.85984C19.405 9.97359 19.48 10.1311 19.48 10.3086V15.3086C19.48 15.6536 19.2 15.9336 18.855 15.9336ZM4.47998 17.1836C5.16998 17.1836 5.72998 16.6236 5.72998 15.9336C5.72998 15.2436 5.16998 14.6836 4.47998 14.6836C3.78998 14.6836 3.22998 15.2436 3.22998 15.9336C3.22998 16.6236 3.78998 17.1836 4.47998 17.1836ZM10.73 5.93359C10.73 5.24359 10.17 4.68359 9.47998 4.68359H3.22998C2.53998 4.68359 1.97998 5.24359 1.97998 5.93359V14.6836H2.32623C2.75998 13.9398 3.55748 13.4336 4.47998 13.4336C5.40248 13.4336 6.19998 13.9398 6.63373 14.6836H10.73V5.93359ZM15.73 17.1836C16.42 17.1836 16.98 16.6236 16.98 15.9336C16.98 15.2436 16.42 14.6836 15.73 14.6836C15.04 14.6836 14.48 15.2436 14.48 15.9336C14.48 16.6236 15.04 17.1836 15.73 17.1836ZM18.23 10.6036L14.81 7.18359H11.98V14.6836H13.5762C14.01 13.9398 14.8075 13.4336 15.73 13.4336C16.6525 13.4336 17.45 13.9398 17.8837 14.6836H18.23V10.6036Z" fill="#566AE5"/>
</g>
<defs>
<clipPath id="clip0_1961_4316">
<rect width="20" height="20" fill="white" transform="translate(0.10498 0.933594)"/>
</clipPath>
</defs>
</svg>
