<svg width="16" height="16" viewBox="0 0 16 16" fill="none" xmlns="http://www.w3.org/2000/svg">
<path d="M8 1C9.85652 1 11.637 1.7375 12.9497 3.05025C14.2625 4.36301 15 6.14348 15 8C15 9.85652 14.2625 11.637 12.9497 12.9497C11.637 14.2625 9.85652 15 8 15C6.14348 15 4.36301 14.2625 3.05025 12.9497C1.7375 11.637 1 9.85652 1 8C1 6.14348 1.7375 4.36301 3.05025 3.05025C4.36301 1.7375 6.14348 1 8 1ZM8 1.88C7.19631 1.88 6.40049 2.0383 5.65798 2.34586C4.91546 2.65342 4.2408 3.10421 3.67251 3.67251C3.10421 4.2408 2.65342 4.91546 2.34586 5.65798C2.0383 6.40049 1.88 7.19631 1.88 8C1.88 8.80369 2.0383 9.59951 2.34586 10.342C2.65342 11.0845 3.10421 11.7592 3.67251 12.3275C4.2408 12.8958 4.91546 13.3466 5.65798 13.6541C6.40049 13.9617 7.19631 14.12 8 14.12C9.62313 14.12 11.1798 13.4752 12.3275 12.3275C13.4752 11.1798 14.12 9.62313 14.12 8C14.12 6.37687 13.4752 4.82023 12.3275 3.67251C11.1798 2.52478 9.62313 1.88 8 1.88ZM7.98 4.333C8.206 4.333 8.393 4.495 8.432 4.709L8.439 4.792C9.455 4.792 10.287 5.617 10.287 6.625H10.286C10.2866 6.73292 10.2491 6.83759 10.1801 6.92062C10.1112 7.00364 10.0152 7.05972 9.909 7.079L9.827 7.087C9.705 7.087 9.588 7.03854 9.50173 6.95227C9.41546 6.866 9.367 6.749 9.367 6.627V6.625H9.363C9.36141 6.38107 9.26333 6.14769 9.09019 5.97586C8.91705 5.80403 8.68293 5.70773 8.439 5.708V7.542H8.624C8.947 7.542 9.363 7.725 9.686 8C10.056 8.32 10.333 8.825 10.333 9.375C10.287 10.383 9.455 11.208 8.439 11.208C8.43913 11.2682 8.42738 11.3279 8.40442 11.3836C8.38147 11.4393 8.34775 11.4899 8.30521 11.5325C8.26267 11.5751 8.21213 11.609 8.1565 11.632C8.10087 11.6551 8.04123 11.667 7.981 11.667H7.973C7.86586 11.6669 7.76215 11.6292 7.67993 11.5605C7.59771 11.4918 7.54218 11.3964 7.523 11.291L7.515 11.208C7.03351 11.2084 6.57089 11.0208 6.2257 10.6852C5.8805 10.3495 5.68003 9.89231 5.667 9.411V9.375C5.67173 9.262 5.71793 9.1547 5.79678 9.0736C5.87562 8.99251 5.98157 8.9433 6.0944 8.93538C6.20722 8.92747 6.31901 8.96139 6.4084 9.03068C6.4978 9.09997 6.55853 9.19977 6.579 9.311L6.584 9.374L6.591 9.375C6.591 9.879 7.007 10.292 7.515 10.292V8.458C7.02731 8.45854 6.55922 8.26607 6.21297 7.92263C5.86671 7.57919 5.67043 7.11268 5.667 6.625C5.667 5.617 6.498 4.792 7.515 4.792C7.515 4.539 7.72 4.333 7.973 4.333H7.981H7.98ZM8.439 8.458V10.292C8.68293 10.2923 8.91705 10.196 9.09019 10.0241C9.26333 9.85231 9.36141 9.61893 9.363 9.375C9.36141 9.13107 9.26333 8.89769 9.09019 8.72586C8.91705 8.55403 8.68293 8.45773 8.439 8.458ZM7.515 5.708C7.27107 5.70773 7.03695 5.80403 6.86381 5.97586C6.69067 6.14769 6.59259 6.38107 6.591 6.625C6.591 7.129 7.007 7.542 7.515 7.542V5.708Z" fill="#566AE5"/>
</svg>
