<svg width="16" height="16" viewBox="0 0 16 16" fill="none" xmlns="http://www.w3.org/2000/svg">
<g clip-path="url(#clip0_74_1769)">
<path d="M9.77736 11.0215H6.22267C5.86036 11.0215 5.56642 10.7275 5.56642 10.3652V9.35352H1.50587C1.34591 9.35352 1.19552 9.27559 1.10255 9.14434C1.01095 9.01309 0.987706 8.84492 1.04239 8.69453L3.31739 2.39727C3.42267 2.08418 3.71251 1.875 4.04337 1.875H11.9553C12.2861 1.875 12.5774 2.08418 12.6813 2.39727L14.9563 8.69316C15.0109 8.84355 14.9877 9.01172 14.8961 9.14297C14.8045 9.27422 14.6541 9.35215 14.4928 9.35215H10.4336V10.3639C10.4336 10.7275 10.1397 11.0215 9.77736 11.0215ZM6.55079 10.0371H9.44923V8.86133C9.44923 8.58926 9.66935 8.36914 9.94142 8.36914H13.7928L11.8022 2.85938H4.19786L2.20724 8.36914H6.05861C6.33068 8.36914 6.55079 8.58926 6.55079 8.86133V10.0371Z" fill="#69686D" stroke="#69686D" stroke-width="0.1"/>
<path d="M14.2207 14.1113H1.7793C1.35684 14.1113 1.01367 13.7682 1.01367 13.3457V8.86133C1.01367 8.58926 1.23379 8.36914 1.50586 8.36914H6.05859C6.33066 8.36914 6.55078 8.58926 6.55078 8.86133V10.0371H9.44922V8.86133C9.44922 8.58926 9.66934 8.36914 9.94141 8.36914H14.4941C14.7662 8.36914 14.9863 8.58926 14.9863 8.86133V13.3457C14.9863 13.7682 14.6432 14.1113 14.2207 14.1113ZM1.99805 13.127H14.002V9.35352H10.4336V10.3652C10.4336 10.7275 10.1396 11.0215 9.77734 11.0215H6.22266C5.86035 11.0215 5.56641 10.7275 5.56641 10.3652V9.35352H1.99805V13.127Z" fill="#69686D" stroke="#69686D" stroke-width="0.1"/>
<path d="M9.75 5.55273H6.25C5.97793 5.55273 5.75781 5.33262 5.75781 5.06055C5.75781 4.78848 5.97793 4.56836 6.25 4.56836H9.75C10.0221 4.56836 10.2422 4.78848 10.2422 5.06055C10.2422 5.33262 10.0221 5.55273 9.75 5.55273ZM10.2969 7.33008H5.70312C5.43105 7.33008 5.21094 7.10996 5.21094 6.83789C5.21094 6.56582 5.43105 6.3457 5.70312 6.3457H10.2969C10.5689 6.3457 10.7891 6.56582 10.7891 6.83789C10.7891 7.10996 10.5689 7.33008 10.2969 7.33008Z" fill="#69686D" stroke="#69686D" stroke-width="0.1"/>
</g>
<defs>
<clipPath id="clip0_74_1769">
<rect width="14" height="14" fill="white" transform="translate(1 1)"/>
</clipPath>
</defs>
</svg>
