<svg width="24" height="24" viewBox="0 0 24 24" fill="none" xmlns="http://www.w3.org/2000/svg">
<path d="M21.6398 18.9162C20.8875 20.217 19.4883 21.0256 17.9883 21.0256H6.55075C5.04841 21.0256 3.64919 20.217 2.89919 18.9162C2.71169 18.5904 2.82185 18.1756 3.14763 17.9881C3.47341 17.7982 3.88825 17.9107 4.07575 18.2365C4.58435 19.1178 5.53356 19.6662 6.55075 19.6662H17.9906C19.0078 19.6662 19.957 19.1178 20.4656 18.2365C20.6531 17.9131 21.0726 17.8006 21.3937 17.9881C21.7172 18.1756 21.8297 18.5904 21.6398 18.9162ZM11.789 16.7482C11.8523 16.8115 11.9273 16.8607 12.0117 16.8959C12.0937 16.9311 12.1828 16.9475 12.2718 16.9475C12.3609 16.9475 12.4476 16.9287 12.532 16.8959C12.6164 16.8607 12.6914 16.8115 12.7547 16.7482L17.7633 11.7396C18.0281 11.4748 18.0281 11.0459 17.7633 10.7787C17.4984 10.5115 17.0695 10.5139 16.8023 10.7787L12.9492 14.6295V2.1748C12.9492 1.7998 12.6445 1.49512 12.2695 1.49512C11.8945 1.49512 11.5898 1.7998 11.5898 2.1748V14.6295L7.74138 10.7787C7.47653 10.5139 7.04763 10.5139 6.78044 10.7787C6.51325 11.0436 6.5156 11.4725 6.78044 11.7396L11.789 16.7482Z" fill="#566AE5"/>
</svg>
