<svg width="18" height="18" viewBox="0 0 18 18" fill="none" xmlns="http://www.w3.org/2000/svg">
<path d="M6.75 11.25V12.375H11.25V11.25H6.75Z" fill="black" fill-opacity="0.4"/>
<path d="M5.0625 5.61475V6.75003H3.375C3.06434 6.75003 2.8125 7.00187 2.8125 7.31253V15.1875C2.8125 15.4982 3.06434 15.75 3.375 15.75H14.625C14.9357 15.75 15.1875 15.4982 15.1875 15.1875V7.31253C15.1875 7.00187 14.9357 6.75003 14.625 6.75003H12.9375V5.61475C12.9375 3.44012 11.1746 1.67725 9 1.67725C6.82538 1.67725 5.0625 3.44012 5.0625 5.61475ZM11.8125 6.75003H6.1875V5.61475C6.1875 4.06145 7.4467 2.80225 9 2.80225C10.5533 2.80225 11.8125 4.06145 11.8125 5.61475V6.75003ZM3.9375 7.87503H14.0625V14.625H3.9375V7.87503Z" fill="black" fill-opacity="0.4"/>
</svg>
