<svg width="24" height="24" viewBox="0 0 24 24" fill="none" xmlns="http://www.w3.org/2000/svg">
<path d="M19.4944 8.01556L16.5211 2L13.0589 3.73111H4.57222C3.26111 3.73111 2.11667 4.92778 2 6.32V19.0667C2 20.7911 3.48444 22 5.12111 22H19.1733C20.8111 22 22 20.7911 22 19.0667V11.1011C22 9.51778 20.9433 8.21778 19.4944 8.01444V8.01556ZM18.1167 7.77444H8.13889L16.0333 3.66667L18.1167 7.77556V7.77444ZM4.67556 5.10778H10.4567L5.25222 7.77444H4.67556C3.98667 7.77444 3.42556 7.18889 3.42556 6.44111C3.42556 5.69444 3.98667 5.10778 4.67556 5.10778ZM20.7311 19.0656C20.7311 20.0433 20.1211 20.6244 19.1733 20.6244H5.12222C4.17444 20.6244 3.29 20.0444 3.29 19.0656V8.74667C3.77889 9.1 3.96 9.15111 4.67667 9.15111H19.1744C20.1222 9.15111 20.7311 10.1244 20.7311 11.1022V19.0656Z" fill="#566AE5"/>
<path d="M11.9797 10.5C12.2047 10.5 12.3897 10.716 12.412 10.9927L12.4143 11.049V11.413C13.3008 11.5544 14.0408 12.1128 14.2808 12.9183C14.3654 13.2018 14.2519 13.5181 14.0273 13.6248C13.8169 13.7251 13.5835 13.6054 13.485 13.3566L13.4677 13.3048C13.3362 12.8638 12.72 12.4755 11.9693 12.4755C10.9908 12.4755 10.4885 12.8346 10.4459 13.5073C10.4109 14.0599 10.9228 14.4271 11.8727 14.4501L11.9689 14.451C13.4677 14.451 14.5 15.1233 14.5 16.5367C14.5 17.8053 13.6685 18.4762 12.4143 18.6009V18.951C12.4143 19.2543 12.2197 19.5 11.9797 19.5C11.7547 19.5 11.5697 19.284 11.5474 19.0072L11.5454 18.951V18.5941C10.6008 18.4681 9.80663 17.9245 9.5351 17.124C9.44087 16.8454 9.54279 16.5228 9.76394 16.404C9.97048 16.2919 10.2082 16.3986 10.3147 16.642L10.3339 16.6925C10.4839 17.1335 11.1566 17.5245 11.9693 17.5245C13.0504 17.5245 13.6308 17.1465 13.6308 16.5367C13.6308 15.9463 13.0873 15.5737 12.0724 15.5499L11.9693 15.549C10.5193 15.549 9.48856 14.847 9.57971 13.4196C9.65817 12.1879 10.4066 11.5278 11.5451 11.4009V11.049C11.5451 10.7457 11.7397 10.5 11.9797 10.5Z" fill="#566AE5" stroke="#566AE5" stroke-width="0.2"/>
</svg>
