<svg width="17" height="17" viewBox="0 0 17 17" fill="none" xmlns="http://www.w3.org/2000/svg">
<g clip-path="url(#clip0_1961_4313)">
<path d="M14.9801 14.2085C14.7426 14.071 14.4301 14.146 14.2926 14.3835C14.0801 14.7585 13.7801 14.921 13.3801 14.921C13.1176 14.921 12.8676 14.8335 12.6801 14.671L14.3926 9.62104C14.6051 8.99604 14.3676 8.32104 13.8051 7.97104L13.4676 7.75854V5.55854C13.4676 4.78354 12.8426 4.14604 12.0801 4.14604H11.6926V3.35854C11.6926 2.58354 11.0676 1.94604 10.3051 1.94604H5.64256C4.88006 1.94604 4.25506 2.58354 4.25506 3.35854V4.14604H3.86756C3.10506 4.14604 2.48006 4.78354 2.48006 5.55854V7.78354L2.14256 7.99604C1.58006 8.34604 1.34256 9.02104 1.55506 9.64604L3.26756 14.6835C3.08006 14.8585 2.85506 14.946 2.56756 14.946C2.18006 14.946 1.83006 14.746 1.66756 14.4335C1.54256 14.1835 1.24256 14.0835 0.992559 14.2085C0.742559 14.3335 0.642559 14.6335 0.767559 14.8835C1.09256 15.521 1.79256 15.946 2.55506 15.946C3.31756 15.946 3.93006 15.596 4.33006 14.921C4.56756 14.546 4.86756 14.3835 5.26756 14.3835C5.66756 14.3835 6.03006 14.5835 6.18006 14.896C6.50506 15.5335 7.20506 15.9585 7.96756 15.9585C8.73006 15.9585 9.34256 15.6085 9.74256 14.9335C9.98006 14.5585 10.2801 14.396 10.6801 14.396C11.0676 14.396 11.4176 14.596 11.5801 14.9085C11.9051 15.546 12.6176 15.971 13.3926 15.971C14.1551 15.971 14.7676 15.6085 15.1676 14.9335C15.3051 14.6585 15.2176 14.346 14.9801 14.2085ZM3.48006 5.55854C3.48006 5.33354 3.65506 5.14604 3.86756 5.14604H4.53006C4.93006 5.14604 5.25506 4.82104 5.25506 4.42104V3.35854C5.25506 3.13354 5.43006 2.94604 5.64256 2.94604H10.3301C10.5426 2.94604 10.7176 3.13354 10.7176 3.35854V4.42104C10.7176 4.82104 11.0426 5.14604 11.4426 5.14604H12.1051C12.3176 5.14604 12.4926 5.33354 12.4926 5.55854V7.15854L8.70506 4.84604C8.25506 4.57104 7.70506 4.57104 7.26756 4.84604L3.48006 7.17104V5.55854ZM7.08006 14.421C6.75506 13.7835 6.04256 13.3585 5.26756 13.3585C4.79256 13.3585 4.36756 13.496 4.01756 13.771L2.50506 9.30854C2.44256 9.13354 2.51756 8.93354 2.66756 8.83354L7.48006 5.88354V14.8085C7.30506 14.721 7.16756 14.5835 7.08006 14.421ZM10.6801 13.3585C9.93006 13.3585 9.31756 13.7085 8.89256 14.371L8.88006 14.3835C8.76756 14.5835 8.63006 14.721 8.46756 14.8085V5.88354L13.2801 8.84604C13.4301 8.94604 13.5051 9.14604 13.4426 9.32104L11.9176 13.796C11.5926 13.521 11.1426 13.3585 10.6801 13.3585Z" fill="#566AE5"/>
</g>
<defs>
<clipPath id="clip0_1961_4313">
<rect width="16" height="16" fill="white" transform="translate(0.105042 0.933594)"/>
</clipPath>
</defs>
</svg>
